<svg width="20" height="24" viewBox="0 0 20 24" fill="none" xmlns="http://www.w3.org/2000/svg">
<path d="M8.71944 20.8006H17.4177L15.229 22.9891C15.1735 23.044 15.1293 23.1093 15.0991 23.1813C15.0689 23.2533 15.0532 23.3305 15.053 23.4086C15.0527 23.4867 15.0679 23.564 15.0977 23.6362C15.1275 23.7084 15.1712 23.7739 15.2264 23.8291C15.2816 23.8843 15.3472 23.9281 15.4194 23.9578C15.4915 23.9876 15.5689 24.0028 15.6469 24.0026C15.725 24.0023 15.8023 23.9866 15.8742 23.9564C15.9462 23.9262 16.0115 23.8821 16.0664 23.8265L19.1491 20.7438C19.2966 20.5959 19.3794 20.3956 19.3794 20.1868C19.3794 19.978 19.2966 19.7777 19.1491 19.6298L16.0664 16.5471C16.0115 16.4916 15.9462 16.4474 15.8742 16.4172C15.8023 16.387 15.725 16.3713 15.6469 16.3711C15.5689 16.3708 15.4915 16.386 15.4194 16.4158C15.3472 16.4456 15.2816 16.4893 15.2264 16.5445C15.1712 16.5997 15.1275 16.6653 15.0977 16.7375C15.0679 16.8096 15.0527 16.887 15.053 16.965C15.0532 17.0431 15.0689 17.1204 15.0991 17.1923C15.1293 17.2643 15.1735 17.3296 15.229 17.3845L17.4392 19.5947V19.6153H8.71944C4.90738 19.6153 1.80603 16.514 1.80603 12.7019L1.80603 0.592552C1.80603 0.435387 1.7436 0.284658 1.63247 0.173525C1.52133 0.0623932 1.37061 -4.00543e-05 1.21344 -4.00543e-05C1.05627 -4.00543e-05 0.905546 0.0623932 0.794413 0.173525C0.683279 0.284658 0.620846 0.435387 0.620846 0.592552L0.620846 12.7019C0.620846 17.1675 4.25385 20.8006 8.71944 20.8006Z" fill="#B1B1B1"/>
</svg>
