<svg width="37" height="40" viewBox="0 0 37 40" fill="none" xmlns="http://www.w3.org/2000/svg">
<path d="M27.2613 17.3156V9.74576C27.2613 9.52912 27.1613 9.32889 27.0196 9.17053L18.5327 0.258515C18.3742 0.0918748 18.1491 0 17.9241 0H4.46843C1.98422 0 0 2.02578 0 4.51015V29.9542C0 32.4385 1.98422 34.4311 4.46835 34.4311H15.0897C17.0986 37.7657 20.7504 39.9999 24.9103 39.9999C31.2295 39.9999 36.39 34.8645 36.39 28.5369C36.3986 23.0096 32.43 18.3911 27.2613 17.3157V17.3156ZM18.7579 2.9264L24.4518 8.92037H20.7586C19.6582 8.92037 18.7579 8.01178 18.7579 6.91139L18.7579 2.9264ZM4.46835 32.7636C2.90953 32.7636 1.6675 31.513 1.6675 29.9542V4.51015C1.6675 2.94281 2.90953 1.6675 4.46835 1.6675H17.0904V6.91123C17.0904 8.93701 18.7329 10.5878 20.7586 10.5878H25.5938V17.0987C25.3439 17.0904 25.1437 17.0654 24.927 17.0654C22.0175 17.0654 19.3414 18.1826 17.3239 19.9334H6.73616C6.27749 19.9334 5.90241 20.3085 5.90241 20.7668C5.90241 21.2256 6.27741 21.6006 6.73616 21.6006H15.7733C15.1812 22.4343 14.6893 23.2681 14.3061 24.1851H6.73608C6.27741 24.1851 5.90233 24.5602 5.90233 25.0188C5.90233 25.4772 6.27733 25.8526 6.73608 25.8526H13.764C13.5555 26.6863 13.4472 27.6117 13.4472 28.537C13.4472 30.0374 13.7389 31.5216 14.2641 32.7721H4.46835V32.7636ZM24.9188 38.3409C19.5165 38.3409 15.1229 33.9473 15.1229 28.5452C15.1229 23.1429 19.5081 18.7493 24.9188 18.7493C30.3292 18.7493 34.7143 23.1429 34.7143 28.5452C34.7143 33.9473 30.321 38.3409 24.9188 38.3409Z" fill="#0D78FF"/>
<path d="M6.73622 17.424H15.1813C15.64 17.424 16.015 17.0486 16.015 16.5902C16.015 16.1316 15.64 15.7565 15.1813 15.7565H6.73622C6.27754 15.7565 5.90247 16.1315 5.90247 16.5902C5.90247 17.0486 6.27747 17.424 6.73622 17.424ZM25.5106 22.3925C25.3522 22.2259 25.1356 22.1258 24.9021 22.1258C24.6686 22.1258 24.4519 22.2259 24.2936 22.3925L19.408 27.6364C19.0912 27.97 19.1163 28.5034 19.4498 28.8119C19.7834 29.1287 20.325 29.1036 20.6418 28.7704L24.0934 25.0772V34.1809C24.0934 34.6395 24.4684 35.0146 24.9271 35.0146C25.3855 35.0146 25.7608 34.6396 25.7608 34.1809V25.0772L29.1871 28.7704C29.3539 28.9453 29.5707 29.0372 29.7959 29.0372C29.9957 29.0372 30.1959 28.9621 30.3626 28.8119C30.6962 28.4951 30.7212 27.97 30.4044 27.6364L25.5106 22.3925Z" fill="#0D78FF"/>
</svg>
